<svg fill="none" xmlns="http://www.w3.org/2000/svg" viewBox="0 0 20 24"><g clip-path="url(#apple_clip0)" fill="#010101"><path d="M14.132 0h.168c.134 1.692-.5 2.957-1.27 3.874-.756.91-1.79 1.791-3.465 1.657-.112-1.668.523-2.84 1.293-3.753C11.57.926 12.878.17 14.132 0zM19.2 17.617v.048c-.471 1.452-1.142 2.697-1.96 3.852-.748 1.049-1.664 2.46-3.3 2.46-1.414 0-2.352-.926-3.8-.951-1.535-.027-2.378.772-3.78.974h-.477c-1.03-.151-1.86-.983-2.465-1.73C1.634 20.058.256 17.202 0 13.548v-1.074c.108-2.616 1.355-4.742 3.013-5.773.875-.549 2.077-1.015 3.417-.807.574.092 1.16.29 1.675.489.487.19 1.096.529 1.673.511.39-.012.78-.22 1.174-.366 1.154-.425 2.285-.912 3.776-.683 1.792.276 3.064 1.087 3.85 2.34-1.515.983-2.714 2.465-2.509 4.996.181 2.298 1.493 3.643 3.131 4.436z"/></g><defs><clipPath id="apple_clip0"><path d="M0 0h19.2v24H0V0z" fill="#fff"/></clipPath></defs></svg>