<svg fill="none" xmlns="http://www.w3.org/2000/svg" viewBox="0 0 20 20"><g clip-path="url(#facebook_clip0)"><path d="M18.889 0H1.11A1.111 1.111 0 000 1.111V18.89A1.111 1.111 0 001.111 20h9.572v-7.733H8.086V9.239h2.597V7.017c0-2.584 1.578-3.992 3.89-3.992.777-.002 1.554.038 2.327.12v2.688h-1.594c-1.253 0-1.498.598-1.498 1.473v1.927h2.998l-.39 3.028h-2.608V20h5.08A1.111 1.111 0 0020 18.889V1.11A1.111 1.111 0 0018.889 0z" fill="#4267B2"/><path d="M13.808 20v-7.733h2.609l.389-3.028h-2.998V7.31c0-.875.245-1.472 1.498-1.472h1.589v-2.7a21.517 21.517 0 00-2.328-.12c-2.306 0-3.89 1.409-3.89 3.992v2.222h-2.59v3.028h2.596V20h3.125z" fill="#fff"/></g><defs><clipPath id="facebook_clip0"><path fill="#fff" d="M0 0h20v20H0z"/></clipPath></defs></svg>