<svg xmlns="http://www.w3.org/2000/svg" fill="none" viewBox="0 0 48 48"><path fill="#FDDB32" d="M31.5 11.5a6.5 6.5 0 1 1 13 0 6.5 6.5 0 0 1-13 0Z"/><path fill="#94B6CC" d="m2.445 26 2.222-10H11v-3h21.293a4 4 0 0 1 3.342 1.802L43 26H2.445Z"/><path fill="#337197" d="M2.445 26h45.056l-5.863 10.915A4 4 0 0 1 38.127 39H5.76C2.552 39 .174 36.023.883 32.895L2.445 26Z"/><path fill="#94B6CC" d="M11.5 18 9 9h6l9 9H11.5Z"/><path fill="#191E3B" d="M6.5 32a.5.5 0 0 1-.5-.5v-2a.5.5 0 0 1 .5-.5h2a.5.5 0 0 1 .5.5v2a.5.5 0 0 1-.5.5h-2ZM12.5 32a.5.5 0 0 1-.5-.5v-2a.5.5 0 0 1 .5-.5h2a.5.5 0 0 1 .5.5v2a.5.5 0 0 1-.5.5h-2ZM18.5 32a.5.5 0 0 1-.5-.5v-2a.5.5 0 0 1 .5-.5h2a.5.5 0 0 1 .5.5v2a.5.5 0 0 1-.5.5h-2ZM24.5 32a.5.5 0 0 1-.5-.5v-2a.5.5 0 0 1 .5-.5h2a.5.5 0 0 1 .5.5v2a.5.5 0 0 1-.5.5h-2ZM30.5 32a.5.5 0 0 1-.5-.5v-2a.5.5 0 0 1 .5-.5h2a.5.5 0 0 1 .5.5v2a.5.5 0 0 1-.5.5h-2ZM39.713 21l1.315 2H3.112l.445-2h36.156ZM36.424 16l1.315 2H4.223l.445-2h31.756Z"/></svg>