<svg width="66" height="24" viewBox="0 0 66 24" fill="none" xmlns="http://www.w3.org/2000/svg">
<path d="M6.00137 6.53465C5.56598 4.66697 5.64708 3.6254 5.83677 3.00513H4.77802C4.74434 3.9467 4.93403 5.12435 5.25568 6.53465L8.26252 20.5593L8.74534 19.538L6.00241 6.53465H6.00172H6.00137Z" fill="#0F51EC"/>
<path d="M7.98832 3.00513H6.81307C6.46668 3.76354 6.37493 4.67006 6.75018 6.53465L9.23641 18.495L9.72988 17.4638L7.49451 6.53499C7.18386 4.85253 7.24227 3.65942 7.98797 3.00547L7.98832 3.00513Z" fill="#0F51EC"/>
<path d="M1.37743 3.00513H0.00012207C1.1654 3.48931 1.91557 4.57796 2.32175 6.52606C2.33275 6.54736 5.55471 21.5915 5.55471 21.5915H6.28975L3.03927 6.50819C2.72931 5.01748 2.21763 3.38966 1.37743 3.00513Z" fill="#0F51EC"/>
<path d="M3.82287 3.00513H2.5813C3.09023 3.52608 3.49332 5.15872 3.7916 6.53465L7.02009 21.5915H7.75513L4.51152 6.53465C4.15998 4.91954 3.90706 3.62677 3.82321 3.00513H3.82287Z" fill="#0F51EC"/>
<path d="M11.0361 3.00513H9.25639C8.74162 3.26835 7.77977 4.09137 8.25159 6.53465L10.2138 16.4315L10.7072 15.3889L8.99832 6.53465C8.66361 4.41336 9.12237 3.42849 11.0361 3.00513Z" fill="#0F51EC"/>
<path d="M14.6295 4.50408C14.6006 3.86113 14.4134 3.3821 14.0343 3.00513H12.5646C13.2769 3.29378 13.7384 3.75014 13.9563 4.49858C14.2556 5.52744 14.0948 7.10853 13.4934 9.5652L13.5426 9.61263C14.2597 7.20818 14.6793 5.61198 14.6295 4.50408Z" fill="#0F51EC"/>
<path d="M16.6978 3.00513H15.193C15.2476 3.49584 15.2277 4.00237 15.1411 4.55975C14.9418 5.84428 14.3892 7.39856 13.5844 9.65317L13.6325 9.69957C14.8078 6.88894 15.5648 5.08243 15.938 4.33948C16.0789 4.05873 16.3318 3.54808 16.6978 3.00513Z" fill="#0F51EC"/>
<path d="M18.0446 3.00513C17.4044 3.39722 16.8615 3.93708 16.301 4.74566C15.5491 5.82984 14.766 7.39718 13.6735 9.73908L13.7189 9.78273V9.7841C14.9075 7.5202 15.8288 6.01678 16.8402 4.96868C17.7532 4.02333 18.8614 3.37042 20.1559 3.00513H18.0446Z" fill="#0F51EC"/>
<path d="M28.5797 9.56317C28.5271 8.53191 27.9498 8.03638 27.1945 8.03638C25.8934 8.03638 24.7038 9.13293 23.7478 11.0807L23.6598 11.4793C24.577 9.63361 25.6392 8.55287 26.7532 8.55287C27.3941 8.55287 27.8862 8.99547 27.9285 9.84839C28.0233 11.7223 26.2635 13.7226 24.6684 14.3119L24.702 14.3446C26.6361 13.8642 28.702 11.7174 28.5793 9.56317H28.5797Z" fill="#0F51EC"/>
<path d="M27.2782 10.1433C27.2463 9.43743 26.8693 9.05908 26.2916 9.05908C25.3796 9.05908 24.414 10.0687 23.5546 11.9563L23.4521 12.4656C24.2226 10.6384 25.1233 9.58519 25.8621 9.58519C26.3236 9.58519 26.5971 9.912 26.6277 10.4381C26.6903 11.7329 25.538 13.6061 24.582 14.2281L24.6143 14.2597C25.9191 13.6663 27.3617 11.712 27.2779 10.1433H27.2782Z" fill="#0F51EC"/>
<path d="M29.9138 8.9844C29.9138 8.9844 29.9138 8.98475 29.9138 8.98509H29.9131L29.9138 8.9844C29.8509 7.63734 29.0636 7.01672 28.0983 7.01672C26.3492 7.01672 24.8303 8.4009 23.9262 10.2696L23.8337 10.6895C24.7375 8.82186 26.164 7.54043 27.6564 7.54043C28.5065 7.54043 29.1993 8.0985 29.2626 9.27856C29.399 11.773 27.1031 13.8868 24.7739 14.4149L24.8066 14.4469C27.5385 14.0393 30.0598 11.7438 29.9134 8.98475L29.9138 8.9844Z" fill="#0F51EC"/>
<path d="M25.936 10.7329C25.915 10.3539 25.7573 10.09 25.3796 10.09C24.8123 10.09 24.08 11.191 23.3563 12.857L23.2913 13.1508C23.7064 12.2913 24.4521 10.7154 24.9494 10.6188C25.1645 10.5772 25.3336 10.7601 25.3628 11.0374C25.437 11.7439 24.9996 13.1954 24.4865 14.1332L24.5191 14.1669C25.2184 13.5336 25.9882 11.6913 25.936 10.7333V10.7329Z" fill="#0F51EC"/>
<path d="M21.0348 7.00645C17.2709 7.00645 15.3919 9.50367 14.7651 12.3442H14.7977C15.4692 9.70127 17.2448 7.29029 20.6138 7.29029C22.2406 7.29029 23.133 8.31159 23.2066 9.63838C23.2911 11.3765 22.7238 12.7239 22.1361 14.282L19.3698 21.6022H20.1258L22.8708 14.3449C23.5052 12.8311 24.0739 11.0514 23.91 9.61776C23.8028 8.15558 22.8396 7.0061 21.0344 7.0061L21.0348 7.00645Z" fill="#0F51EC"/>
<path d="M22.5148 9.7212V9.72258C22.4537 8.51262 21.6537 7.57483 20.1956 7.57483C17.2046 7.57483 15.5022 9.80814 14.8606 12.3442H14.8932C15.5596 10.0064 17.0778 7.86933 19.7544 7.86933C21.0348 7.86933 21.7485 8.66966 21.8018 9.75385C21.8753 11.1971 21.2038 12.7765 20.6688 14.2184L17.818 21.6022H18.574L21.3812 14.2796C21.3812 14.2796 22.6011 11.4171 22.5148 9.72086V9.7212Z" fill="#0F51EC"/>
<path d="M21.1593 9.77758V9.77621H21.16C21.1047 8.83979 20.4885 8.13464 19.3861 8.13464C17.0295 8.13464 15.6047 10.1814 14.958 12.3459H14.9907C15.6621 10.335 17.0023 8.41918 18.9549 8.41918C19.8896 8.41918 20.414 9.00886 20.4562 9.83016C20.5191 10.9669 19.7425 12.8205 19.2284 14.116L16.2955 21.6022H17.082L19.9628 14.1473C20.4157 13.0648 21.2366 11.0851 21.1593 9.77724V9.77758Z" fill="#0F51EC"/>
<path d="M18.5265 14.0109C19.0158 12.7796 19.8485 10.8831 19.7966 9.87139C19.755 9.19751 19.3248 8.72363 18.5687 8.72363C16.9437 8.72363 15.6815 10.4762 15.0674 12.3452H15.1001C15.7323 10.692 16.8478 9.00817 18.1595 9.00817C18.7368 9.00817 19.0722 9.33497 19.1045 9.89338C19.1461 10.8092 18.233 12.8635 17.8031 14.0112L14.7853 21.6029H15.5413L18.5279 14.0119L18.5265 14.0112V14.0109Z" fill="#0F51EC"/>
<path d="M18.4317 9.95525C18.4142 9.52433 18.1691 9.28137 17.7602 9.28137C16.8159 9.28137 15.798 10.7738 15.1661 12.3449H15.1987C15.8176 10.9549 16.7822 9.57622 17.3286 9.57622C17.5592 9.57622 17.7173 9.69168 17.7276 9.98652C17.7588 10.6075 16.741 12.9243 16.3321 13.925L13.2613 21.6022H14.0173L17.0771 13.925C17.9915 11.6332 18.4557 10.5518 18.4317 9.95491V9.95525Z" fill="#0F51EC"/>
<path d="M43.1464 10.5995C43.2199 9.76792 42.8526 9.27343 42.2436 9.18855C41.3529 9.06346 40.2148 9.74009 39.399 10.8002C39.399 10.8002 39.4234 10.8236 39.4272 10.827C40.1241 10.0013 41.0371 9.43116 41.6873 9.52566C42.1175 9.57823 42.4003 9.96826 42.3484 10.5892C42.0859 13.4435 38.5928 20.0623 35.3286 21.4836L35.3093 21.5314C39.0584 20.4022 42.8515 13.8215 43.1464 10.5995Z" fill="#0F51EC"/>
<path d="M46.3898 10.7057C46.5575 8.90472 45.7599 7.98892 44.5115 7.80954C42.7194 7.55731 40.5263 8.6707 39.2036 10.614L39.2328 10.6418C40.4503 8.98891 42.4015 7.92501 43.9551 8.13566C45.0255 8.28342 45.7503 9.10438 45.6029 10.6834C45.1836 15.1761 40.7369 21.3472 35.2432 21.6939L35.2263 21.7355C41.2507 21.5771 45.9376 15.5497 46.3894 10.705L46.3898 10.7057Z" fill="#0F51EC"/>
<path d="M44.783 10.6741C44.9091 9.337 44.3002 8.63082 43.3978 8.50436C42.0315 8.31639 40.3446 9.23082 39.3033 10.7088L39.3322 10.7363C40.3298 9.46209 41.7287 8.68271 42.8109 8.83048C43.5875 8.93597 44.07 9.53631 43.9652 10.6205C43.6194 14.3019 39.9174 20.6015 35.2848 21.5922L35.2676 21.6348C40.3167 20.9194 44.4157 14.6964 44.7834 10.6738L44.783 10.6741Z" fill="#0F51EC"/>
<path d="M34.4635 20.8826C34.526 20.1146 35.1247 18.7342 35.3872 18.0603L40.4576 5.38311L42.6102 0L41.6583 0.1945C41.592 0.430924 40.0494 4.54051 39.6964 5.4271L34.7274 17.7991C34.4518 18.4699 33.9281 19.829 33.8968 20.5768C33.8865 20.9036 34.1518 21.3761 34.5992 21.517L34.6185 21.4678C34.5171 21.3895 34.4429 21.1665 34.4632 20.8826H34.4635Z" fill="#0F51EC"/>
<path d="M33.2671 20.239C33.3406 19.4813 33.865 18.1126 34.096 17.4913L38.9993 5.32849C39.1447 4.94327 40.8454 0.769771 40.6444 0.401733L39.6612 0.602762C39.7021 1.39141 39.0145 3.31786 38.233 5.26938L33.4156 17.2311C33.1327 17.9143 32.7104 19.1235 32.6479 19.8916C32.5647 20.8627 33.4406 21.4087 34.5695 21.5926L34.5853 21.5531C33.7874 21.4139 33.1915 21.0177 33.2671 20.2393V20.239Z" fill="#0F51EC"/>
<path d="M30.7903 18.8191C30.8621 17.9974 31.2419 17.0291 31.5034 16.3868L36.0188 5.21198C36.4154 4.19447 37.4291 1.99655 36.8442 1.17834L35.8549 1.3804C36.5428 2.33469 35.7033 4.10718 35.2583 5.21198L30.8601 16.1029C30.5975 16.7555 30.2556 17.6397 30.1828 18.462C30.0371 20.2019 31.5731 21.6273 34.5047 21.7558L34.5202 21.7163C32.0752 21.5589 30.6536 20.3788 30.79 18.8187L30.7903 18.8191Z" fill="#0F51EC"/>
<path d="M32.0488 19.5235C32.12 18.7018 32.5423 17.596 32.8048 16.9221L37.5295 5.22224C37.7804 4.5621 39.0168 1.70406 38.7306 0.792725L37.8 0.982757C38.3227 1.65148 37.0756 4.46142 36.7845 5.21261L32.1554 16.6695C31.8818 17.3434 31.4832 18.3761 31.4196 19.1441C31.2942 20.5386 32.4361 21.5193 34.5375 21.6736L34.5519 21.6375C33.4925 21.4554 31.909 21.1355 32.0488 19.5231V19.5235Z" fill="#0F51EC"/>
<path d="M29.5726 18.0822C29.6461 17.2599 29.9502 16.5022 30.2135 15.8283L34.5007 5.2119C34.9935 3.95108 35.6464 2.47275 35.0048 1.5542L34.0736 1.74458C34.7313 2.4535 34.4701 3.38614 33.7426 5.2119L29.5413 15.6176C29.3001 16.2496 29.0478 16.9132 28.974 17.7348C28.7049 20.2475 31.9059 21.8399 34.4715 21.8399L34.488 21.7983C31.1942 21.6293 29.4042 19.988 29.5726 18.0822Z" fill="#0F51EC"/>
<path d="M45.6639 7.12569C43.3969 6.80954 40.6564 8.15798 39.1025 10.5171L39.1307 10.5439C40.6001 8.45935 43.0822 7.15662 45.0976 7.44115C46.4626 7.63049 47.3959 8.6731 47.2076 10.716C46.7402 15.8785 42.0605 21.7042 35.2032 21.795L35.185 21.8403C42.6375 21.8403 47.3759 16.3847 48.0357 10.7483C48.2866 8.60712 47.2062 7.34081 45.6639 7.12569Z" fill="#0F51EC"/>
<path d="M59.0904 7.37071C56.5616 7.9061 53.1802 15.4717 53.1063 19.783C53.096 20.6228 53.4489 21.3266 54.4413 21.5283L54.4265 21.5647C52.9348 21.3761 52.3932 20.2452 52.4135 19.2555C52.5039 14.8205 55.9722 7.82088 59.1055 7.33325L59.0904 7.37071Z" fill="#0F51EC"/>
<path d="M59.2156 7.0614C52.6696 7.49095 48.3384 11.0789 48.2559 16.1703C48.2253 18.0613 49.615 21.5492 54.3163 21.8403L54.3311 21.8028C50.4222 21.5757 48.9009 18.5929 48.97 16.6971C49.0642 11.7023 53.3555 7.5992 59.1995 7.10023L59.2153 7.0614H59.2156Z" fill="#0F51EC"/>
<path d="M49.6428 17.2132C49.6109 18.8049 50.7617 21.4946 54.3483 21.7602L54.3631 21.7228C51.249 21.4132 50.3346 19.1713 50.3555 17.7397C50.4387 12.9741 54.3029 7.73564 59.162 7.192L59.1771 7.15454C53.7294 7.58581 49.7411 12.3074 49.6422 17.2129L49.6428 17.2132Z" fill="#0F51EC"/>
<path d="M51.0177 18.2235C50.9957 19.5249 51.9015 21.4421 54.386 21.6661L54.4022 21.6259C52.4723 21.3836 51.685 19.9235 51.7204 18.7613C51.8046 14.1981 55.4386 7.81435 59.1272 7.27964L59.1423 7.24219C54.8183 7.72534 51.096 13.5775 51.0177 18.2239V18.2235Z" fill="#0F51EC"/>
<path d="M55.1443 21.5307C57.6731 20.9953 61.0545 13.4297 61.1284 9.11844C61.1387 8.27859 60.7858 7.57481 59.7934 7.3731L59.8081 7.33667C61.2999 7.52533 61.8415 8.65625 61.8212 9.64593C61.7308 14.0809 58.2625 21.0805 55.1292 21.5682L55.1443 21.5307Z" fill="#0F51EC"/>
<path d="M55.0189 21.8399C61.5649 21.4104 65.8961 17.8224 65.9786 12.7311C66.0092 10.84 64.6195 7.3521 59.9182 7.06104L59.9034 7.09849C63.8123 7.32564 65.3336 10.3084 65.2645 12.2043C65.1704 17.1991 60.879 21.3021 55.0351 21.8011L55.0193 21.8399H55.0189Z" fill="#0F51EC"/>
<path d="M64.5915 11.6883C64.6235 10.0965 63.4726 7.40687 59.8861 7.14124L59.8713 7.17869C62.9854 7.48831 63.8998 9.73021 63.8788 11.1618C63.7957 15.9274 59.9314 21.1658 55.0724 21.7095L55.0573 21.7469C60.505 21.3157 64.4932 16.5941 64.5922 11.6886L64.5915 11.6883Z" fill="#0F51EC"/>
<path d="M63.2162 10.6779C63.2382 9.37657 62.3324 7.4594 59.8479 7.23535L59.8317 7.27556C61.7616 7.51782 62.5489 8.97795 62.5135 10.1401C62.4293 14.7033 58.7953 21.0871 55.1067 21.6218L55.0916 21.6593C59.4156 21.1761 63.1379 15.3239 63.2162 10.6776V10.6779Z" fill="#0F51EC"/>
</svg>
