<svg width="116" height="24" viewBox="0 0 116 24" fill="none" xmlns="http://www.w3.org/2000/svg">
<path d="M15.4046 2.40002H3.88423C1.73941 2.40002 0 4.13944 0 6.28425V17.8046C0 19.9502 1.73941 21.6888 3.88423 21.6888H15.4046C17.5502 21.6888 19.2888 19.9494 19.2888 17.8046V6.28425C19.2888 4.13867 17.5494 2.40002 15.4046 2.40002Z" fill="#E91401"/>
<path d="M12.0604 17.8529C12.0512 17.7902 12.0451 17.7259 12.0451 17.6609V13.9327H11.4698V17.0543C11.4698 17.462 11.6825 17.7955 12.0596 17.8529H12.0604Z" fill="white"/>
<path d="M3.33347 18.0341C3.31434 17.9377 3.3044 17.8383 3.3044 17.7358V6.51376C3.3044 6.40132 3.3174 6.30188 3.34035 6.19556C2.95331 6.30876 2.67029 6.71493 2.67029 7.17847V17.1392C2.67029 17.5996 2.912 17.9362 3.33347 18.0341Z" fill="white"/>
<path d="M12.0458 9.6086V6.71723C12.0458 6.65986 12.0504 6.60402 12.0581 6.54895C11.6741 6.59714 11.4714 6.99566 11.4714 7.40336V9.58106L12.0466 9.6086H12.0458Z" fill="white"/>
<path d="M4.49993 18.025V5.65636C4.49993 5.58523 4.50605 5.51562 4.51446 5.44678C4.07923 5.58829 3.81763 6.01511 3.81763 6.50389V17.6204C3.81763 18.1482 4.13277 18.5558 4.62155 18.6561C4.54353 18.4618 4.50069 18.2491 4.50069 18.0242L4.49993 18.025Z" fill="white"/>
<path d="M12.5101 6.82432V9.62772L13.0983 9.65832V6.73559C13.0983 6.73559 13.0998 5.92707 13.1006 5.91101C12.6807 5.9745 12.5101 6.37531 12.5101 6.82508V6.82432Z" fill="white"/>
<path d="M13.0983 17.8506V13.925H12.5101V17.4559C12.5101 17.937 12.7365 18.3256 13.1886 18.3615C13.1312 18.2017 13.0983 18.0296 13.0983 17.8498V17.8506Z" fill="white"/>
<path d="M15.1284 18.949C15.4473 18.9337 15.7288 18.9 15.8329 18.8817C16.3125 18.7983 16.672 18.3852 16.672 17.8903V6.23918C16.672 5.75728 16.3063 5.36641 15.8726 5.25474C15.8726 5.25474 15.5651 5.16295 15.1276 5.13771C14.7276 5.11399 14.4484 5.14535 14.4484 5.14535C13.9642 5.20272 13.584 5.56912 13.584 6.08161V10.1846L8.79108 9.98878V5.83378C8.79108 4.99008 8.01622 4.70247 8.01622 4.70247C7.81276 4.6191 7.48384 4.55331 7.02031 4.51201C6.61567 4.47529 6.19344 4.50436 6.13607 4.51048C5.53791 4.57932 5.06366 5.08722 5.06366 5.71521V18.1825C5.06442 18.8136 5.51037 19.2756 6.25157 19.2756C6.59272 19.2756 6.91551 19.2702 7.04861 19.2656C7.16946 19.2611 7.63683 19.2366 7.81964 19.1899C7.82423 19.1884 8.80102 18.9895 8.80102 17.9982L8.79108 16.5754V13.4194H13.584V17.9378C13.584 18.4992 14.0521 18.9482 14.5861 18.9482C14.5861 18.9482 14.8821 18.9612 15.1276 18.949H15.1284Z" fill="white"/>
<path d="M68.257 5.5752H65.8857V18.5213H68.257V5.5752Z" fill="#0A103D"/>
<path d="M59.709 8.73047C56.9936 8.73047 54.8136 10.7766 54.8136 13.7406C54.8136 16.7047 56.9745 18.7508 59.862 18.7508C61.5066 18.7508 62.8643 18.1963 63.7248 17.4505V15.3852C62.7496 16.1501 61.3536 16.7429 60.1106 16.7429C58.3368 16.7429 57.2896 15.8074 57.1305 14.5438H64.4897C65.0252 11.4268 63.0555 8.73047 59.709 8.73047ZM57.155 12.7271C57.3829 11.6325 58.3192 10.681 59.7473 10.681C61.1754 10.681 62.091 11.5507 62.2478 12.7271H57.155Z" fill="#0A103D"/>
<path d="M42.6707 8.73047C39.9935 8.73047 37.584 10.6619 37.584 13.7406C37.584 16.8194 39.9935 18.7508 42.6707 18.7508C45.3478 18.7508 47.7573 16.8194 47.7573 13.7406C47.7573 10.6619 45.3478 8.73047 42.6707 8.73047ZM42.6707 16.6664C41.0835 16.6664 39.9743 15.4235 39.9743 13.7406C39.9743 12.0578 41.0835 10.8149 42.6707 10.8149C44.2578 10.8149 45.367 12.0578 45.367 13.7406C45.367 15.4235 44.2578 16.6664 42.6707 16.6664Z" fill="#0A103D"/>
<path d="M33.683 10.7575H28.1947V5.5752H25.7661V18.5213H28.1947V12.9566H33.683V18.5213H36.1116V5.5752H33.683V10.7575Z" fill="#0A103D"/>
<path d="M51.8305 6.56958H49.4975V8.95993H48.1589V10.8148H49.4975V16.2648C49.4975 17.9285 50.2624 18.7508 51.9261 18.7508C52.5571 18.7508 53.4941 18.5596 54.1443 18.311V16.3796C53.7045 16.5517 53.1308 16.6855 52.6719 16.6855C52.0599 16.6855 51.8305 16.4943 51.8305 15.978V10.8148H54.1443V8.95993H51.8305V6.56958Z" fill="#0A103D"/>
<path d="M79.2526 15.825C78.3538 15.825 77.7993 16.4751 77.7993 17.2783C77.7993 18.0814 78.3538 18.7125 79.2526 18.7125C80.1514 18.7125 80.7059 18.0623 80.7059 17.2783C80.7059 16.4942 80.1514 15.825 79.2526 15.825Z" fill="#0A103D"/>
<path d="M111.704 8.82605C110.428 8.82605 109.516 9.45634 108.955 10.1792C108.501 9.37067 107.671 8.82605 106.33 8.82605C105.146 8.82605 104.401 9.31406 103.94 9.95047V8.95991H101.588V18.5213H103.94V12.8418C103.94 11.5989 104.552 10.8148 105.623 10.8148C106.617 10.8148 107.21 11.5032 107.21 12.6506V18.5213H109.562V12.8418C109.562 11.5989 110.174 10.8148 111.245 10.8148C112.239 10.8148 112.832 11.5032 112.832 12.6506V18.5213H115.184V12.249C115.184 10.0882 113.903 8.82605 111.704 8.82605Z" fill="#0A103D"/>
<path d="M74.6823 13.1861L73.7453 12.6315C72.9421 12.1535 72.5596 11.8666 72.5596 11.3885C72.5596 10.9105 72.923 10.5663 73.6496 10.5663C74.5675 10.5663 75.5619 10.9296 76.1356 11.2738V9.32328C75.5428 8.95994 74.6058 8.73047 73.5349 8.73047C71.374 8.73047 70.1119 10.0117 70.1119 11.4842C70.1119 12.8801 70.8768 13.5494 72.0625 14.2187L73.0568 14.7733C73.9556 15.2705 74.2042 15.5382 74.1851 16.0163C74.166 16.5326 73.6879 16.8577 72.9995 16.8577C71.9477 16.8577 70.7812 16.4178 69.9398 15.672V17.8138C70.5709 18.3301 71.9286 18.7508 73.0951 18.7508C75.0839 18.7508 76.6328 17.6991 76.6328 15.8633C76.6328 14.582 75.9253 13.9128 74.6823 13.1861Z" fill="#0A103D"/>
<path d="M95.1627 8.73047C92.4855 8.73047 90.076 10.6619 90.076 13.7406C90.076 16.8194 92.4855 18.7508 95.1627 18.7508C97.8399 18.7508 100.249 16.8194 100.249 13.7406C100.249 10.6619 97.8399 8.73047 95.1627 8.73047ZM95.1627 16.6664C93.5755 16.6664 92.4664 15.4235 92.4664 13.7406C92.4664 12.0578 93.5755 10.8149 95.1627 10.8149C96.7499 10.8149 97.859 12.0578 97.859 13.7406C97.859 15.4235 96.7499 16.6664 95.1627 16.6664Z" fill="#0A103D"/>
<path d="M83.9186 13.7215C83.9186 12.096 85.1424 10.8148 86.787 10.7957C87.6093 10.8148 88.3933 11.1017 89.1391 11.618V9.3806C88.3933 8.9599 87.4946 8.73043 86.5767 8.7113C83.6317 8.73043 81.49 10.8339 81.49 13.7215C81.49 16.609 83.6317 18.7508 86.5575 18.7317C87.4754 18.7508 88.3742 18.5022 89.1774 18.0241V15.825C88.5081 16.2839 87.7049 16.6664 86.787 16.6473C85.1424 16.6664 83.9186 15.3852 83.9186 13.7215Z" fill="#0A103D"/>
</svg>
