<svg viewBox="0 0 108 24" xmlns="http://www.w3.org/2000/svg">
<path d="M15.3173 21.6884H3.96268C1.77813 21.6884 0 19.9103 0 17.7173V6.36268C0 4.17812 1.77813 2.39999 3.96268 2.39999H15.3173C17.5103 2.39999 19.28 4.17812 19.28 6.36268V17.7173C19.2884 19.9103 17.5103 21.6884 15.3173 21.6884Z" fill="#FDDB32"/>
<path d="M5.89327 17.9374V16.0662C5.89327 15.9138 5.77473 15.7952 5.62232 15.7952H3.75105C3.59864 15.7952 3.4801 15.9138 3.4801 16.0662V17.9374C3.4801 18.0898 3.59864 18.2084 3.75105 18.2084H5.62232C5.77473 18.2084 5.89327 18.0898 5.89327 17.9374Z" fill="#191E3B"/>
<path d="M15.8085 16.3287V7.1078C15.8085 6.42195 15.2581 5.87158 14.5723 5.87158H5.35141C5.16513 5.87158 5.05506 5.93932 4.93651 6.05786L3.09912 7.91219C2.96364 8.04767 3.05678 8.25088 3.26 8.25088H11.6003L6.42675 13.4244C6.33361 13.5175 6.29128 13.6107 6.29128 13.7631V15.1263C6.29128 15.2872 6.40135 15.3973 6.56223 15.3973H7.92546C8.08634 15.3973 8.17948 15.3549 8.26415 15.2618L13.4377 10.0883V18.4285C13.4377 18.6318 13.6409 18.7249 13.7763 18.5894L15.6307 16.7436C15.7407 16.625 15.8085 16.5149 15.8085 16.3287Z" fill="#191E3B"/>
<path d="M43.8009 13.9494L47.5773 8.73352C47.6873 8.57264 47.6027 8.41176 47.4164 8.41176H45.3589C45.2488 8.41176 45.1048 8.4541 45.0371 8.57264L42.5477 12.2051L39.9991 8.57264C39.9313 8.46256 39.7959 8.41176 39.6773 8.41176H37.4843C37.3742 8.41176 37.298 8.5049 37.298 8.59804C37.298 8.64038 37.298 8.69118 37.3403 8.73352L41.1252 13.9663L36.9509 19.7071C36.8408 19.868 36.9254 20.0289 37.0863 20.0289H39.1608C39.2709 20.0289 39.4148 19.9865 39.4826 19.868L42.3699 15.7105L45.2996 19.868C45.3673 19.9865 45.5028 20.0289 45.6213 20.0289H47.8313C47.9414 20.0289 48.0176 19.9357 48.0176 19.8426C48.0176 19.8002 47.9922 19.7494 47.9752 19.7071L43.8009 13.9494Z" fill="#191E3B"/>
<path d="M35.3675 4.05112C35.5284 4.05112 35.6385 4.16119 35.6385 4.32207V5.87158C35.6385 6.03246 35.5284 6.14253 35.3675 6.14253H27.9925V10.7487H34.6139C34.7748 10.7487 34.8849 10.8588 34.8849 11.0197V12.5607C34.8849 12.7216 34.7748 12.8317 34.6139 12.8317H27.9925V17.8782H35.3675C35.5284 17.8782 35.6385 17.9882 35.6385 18.1491V19.7494C35.6385 19.9103 35.5284 20.0204 35.3675 20.0204H26.7394C26.0789 20.0204 25.5793 19.5208 25.5793 18.8604V5.21113C25.5793 4.55069 26.0789 4.05112 26.7394 4.05112H35.3675Z" fill="#191E3B"/>
<path d="M55.7905 8.04766C53.5552 8.04766 52.3698 9.02987 51.6839 9.94433V8.68271C51.6839 8.52183 51.5738 8.41176 51.413 8.41176H49.6094C49.4485 8.41176 49.3385 8.5303 49.3385 8.68271V23.7206C49.3385 23.8815 49.4485 23.9915 49.6094 23.9915H51.4384C51.5992 23.9915 51.7093 23.8815 51.7093 23.7206V18.5386C52.3698 19.4531 53.5552 20.3675 55.7905 20.3675C59.423 20.3675 61.5398 17.6326 61.5398 14.2034C61.5398 10.7741 59.423 8.04766 55.7905 8.04766ZM55.3841 18.4031C53.1487 18.4031 51.6162 16.896 51.6162 14.2288C51.6162 11.5616 53.1487 10.0036 55.3841 10.0036C57.6195 10.0036 59.1266 11.5531 59.1266 14.2288C59.1266 16.896 57.6195 18.4031 55.3841 18.4031Z" fill="#191E3B"/>
<path d="M68.737 8.04766C65.5618 8.04766 63.0301 10.3338 63.0301 14.1187C63.0301 17.9967 65.2654 20.376 69.0334 20.376C71.201 20.376 73.0045 19.4192 74.1222 18.0898C74.1899 18.0221 74.2153 17.9544 74.2153 17.8866C74.2153 17.8189 74.1899 17.7512 74.1222 17.6834L73.0722 16.6504C73.0045 16.5827 72.9368 16.5573 72.869 16.5573C72.8013 16.5573 72.7335 16.5996 72.6658 16.6673C71.8021 17.6072 70.676 18.4031 69.0588 18.4031C66.6964 18.4031 65.5618 16.9468 65.384 14.8469H74.1476C74.3085 14.8469 74.4185 14.7283 74.4185 14.5759V14.1187C74.4185 10.6471 72.3187 8.04766 68.737 8.04766ZM65.4686 13.0688C65.7396 11.1636 66.7387 9.91893 68.7201 9.91893C70.7522 9.91893 71.8275 11.0789 71.98 13.0688H65.4686Z" fill="#191E3B"/>
<path d="M107.051 8.41176H105.248C105.087 8.41176 104.977 8.52184 104.977 8.68271V9.96127C104.291 9.04681 103.106 8.0646 100.82 8.0646C97.2379 8.0646 95.1126 10.7995 95.1126 14.2288C95.1126 17.658 97.2379 20.3929 100.82 20.3929C103.106 20.3929 104.291 19.4107 104.977 18.4963V19.7494C104.977 19.9103 105.087 20.0204 105.248 20.0204H107.051C107.212 20.0204 107.322 19.9103 107.322 19.7494V8.68271C107.331 8.52184 107.212 8.41176 107.051 8.41176ZM101.277 18.4285C99.0414 18.4285 97.5342 16.879 97.5342 14.2034C97.5342 11.5362 99.0414 10.029 101.277 10.029C103.512 10.029 105.045 11.5362 105.045 14.2034C105.045 16.879 103.512 18.4285 101.277 18.4285Z" fill="#191E3B"/>
<path d="M87.8392 4.05112H86.0102C85.8493 4.05112 85.7393 4.16119 85.7393 4.32207V9.96127C85.0534 9.0468 83.8934 8.0646 81.6072 8.0646C78.0256 8.0646 75.9003 10.7995 75.9003 14.2288C75.9003 17.658 78.0256 20.3929 81.6072 20.3929C83.8934 20.3929 85.0788 19.4107 85.7647 18.4963V19.7494C85.7647 19.9103 85.8748 20.0204 86.0356 20.0204H87.8392C88 20.0204 88.1101 19.9103 88.1101 19.7494V4.32207C88.1101 4.16119 88 4.05112 87.8392 4.05112ZM82.0645 18.4285C79.8291 18.4285 78.322 16.879 78.322 14.2034C78.322 11.5362 79.8291 10.029 82.0645 10.029C84.2998 10.029 85.8324 11.5362 85.8324 14.2034C85.8324 16.879 84.2998 18.4285 82.0645 18.4285Z" fill="#191E3B"/>
<path d="M92.8095 4.05112C92.9703 4.05112 93.0804 4.16119 93.0804 4.32207V6.19334C93.0804 6.35421 92.9703 6.46429 92.8095 6.46429H90.9382C90.7773 6.46429 90.6673 6.35421 90.6673 6.19334V4.32207C90.6673 4.16119 90.7773 4.05112 90.9382 4.05112H92.8095Z" fill="#191E3B"/>
<path d="M92.7925 8.41176C92.9534 8.41176 93.0635 8.52183 93.0635 8.68271V19.7494C93.0635 19.9103 92.9534 20.0204 92.7925 20.0204H90.9636C90.8027 20.0204 90.6926 19.9103 90.6926 19.7494V8.68271C90.6926 8.52183 90.8027 8.41176 90.9636 8.41176H92.7925Z" fill="#191E3B"/>
</svg>
