<svg fill="none" xmlns="http://www.w3.org/2000/svg" viewBox="0 0 20 14"><path fill-rule="evenodd" clip-rule="evenodd" d="M0 .25h20v1.039H0V.25zm0 2.072h20V3.36H0V2.32zm20 2.082H0v1.039h20v-1.04zM0 6.476h20v1.038H0V6.476zm20 2.082H0v1.038h20V8.558zM0 10.63h20v1.038H0V10.63zm20 2.081H0v1.04h20v-1.04z" fill="#B22234"/><path fill-rule="evenodd" clip-rule="evenodd" d="M20 1.26H0v1.039h20V1.26zm0 2.103H0V4.4h20V3.363zM0 5.445h20v1.039H0v-1.04zm20 2.072H0v1.038h20V7.517zM0 9.599h20v1.038H0V9.6zm20 2.071H0v1.04h20v-1.04z" fill="#fff"/><path fill="#3C3B6E" d="M0 0h11.25v7.52H0z"/><path d="M1.555.94l.08.256h.258l-.209.158.08.255-.209-.158-.209.158.08-.255-.209-.158h.258l.08-.256zM2.735.94l.08.256h.258l-.209.158.08.255-.209-.158-.209.158.08-.255-.209-.158h.258l.08-.256zM3.925.94l.08.256h.258l-.209.158.08.255-.209-.158-.209.158.08-.255-.209-.158h.258l.08-.256zM5.105.94l.08.256h.258l-.209.158.08.255-.209-.158-.209.158.08-.255-.209-.158h.258l.08-.256zM6.285.94l.08.256h.258l-.21.158.08.255-.208-.158-.209.158.08-.255-.209-.158h.258l.08-.256zM7.475.94l.08.256h.258l-.209.158.08.255-.209-.158-.209.158.08-.255-.209-.158h.258l.08-.256zM8.655.94l.08.256h.258l-.209.158.08.255-.209-.158-.209.158.08-.255-.209-.158h.258l.08-.256zM9.845.94l.08.256h.258l-.209.158.08.255-.209-.158-.209.158.08-.255-.209-.158h.258l.08-.256zM1.555 3.5l.08.256h.258l-.209.158.08.255-.209-.158-.209.158.08-.255-.209-.158h.258l.08-.256zM2.735 3.5l.08.256h.258l-.209.158.08.255-.209-.158-.209.158.08-.255-.209-.158h.258l.08-.256zM3.925 3.5l.08.256h.258l-.209.158.08.255-.209-.158-.209.158.08-.255-.209-.158h.258l.08-.256zM5.105 3.5l.08.256h.258l-.209.158.08.255-.209-.158-.209.158.08-.255-.209-.158h.258l.08-.256zM6.285 3.5l.08.256h.258l-.21.158.08.255-.208-.158-.209.158.08-.255-.209-.158h.258l.08-.256zM7.475 3.5l.08.256h.258l-.209.158.08.255-.209-.158-.209.158.08-.255-.209-.158h.258l.08-.256zM8.655 3.5l.08.256h.258l-.209.158.08.255-.209-.158-.209.158.08-.255-.209-.158h.258l.08-.256zM9.845 3.5l.08.256h.258l-.209.158.08.255-.209-.158-.209.158.08-.255-.209-.158h.258l.08-.256zM1.555 6.1l.08.256h.258l-.209.158.08.255-.209-.158-.209.158.08-.255-.209-.158h.258l.08-.256zM2.735 6.1l.08.256h.258l-.209.158.08.255-.209-.158-.209.158.08-.255-.209-.158h.258l.08-.256zM3.925 6.1l.08.256h.258l-.209.158.08.255-.209-.158-.209.158.08-.255-.209-.158h.258l.08-.256zM5.105 6.1l.08.256h.258l-.209.158.08.255-.209-.158-.209.158.08-.255-.209-.158h.258l.08-.256zM6.285 6.1l.08.256h.258l-.21.158.08.255-.208-.158-.209.158.08-.255-.209-.158h.258l.08-.256zM7.475 6.1l.08.256h.258l-.209.158.08.255-.209-.158-.209.158.08-.255-.209-.158h.258l.08-.256zM8.655 6.1l.08.256h.258l-.209.158.08.255-.209-.158-.209.158.08-.255-.209-.158h.258l.08-.256zM9.845 6.1l.08.256h.258l-.209.158.08.255-.209-.158-.209.158.08-.255-.209-.158h.258l.08-.256zM1.025 2.22l.08.256h.258l-.21.158.08.255-.208-.158-.209.158.08-.255-.209-.158h.258l.08-.256zM2.205 2.22l.08.256h.258l-.21.158.08.255-.208-.158-.209.158.08-.255-.209-.158h.258l.08-.256zM3.395 2.22l.08.256h.258l-.21.158.08.255-.208-.158-.209.158.08-.255-.209-.158h.258l.08-.256zM4.575 2.22l.08.256h.258l-.21.158.08.255-.208-.158-.209.158.08-.255-.209-.158h.258l.08-.256zM5.755 2.22l.08.256h.258l-.21.158.08.255-.208-.158-.209.158.08-.255-.209-.158h.258l.08-.256zM6.945 2.22l.08.256h.258l-.21.158.08.255-.208-.158-.209.158.08-.255-.209-.158h.258l.08-.256zM8.125 2.22l.08.256h.258l-.209.158.08.255-.209-.158-.209.158.08-.255-.209-.158h.258l.08-.256zM9.315 2.22l.08.256h.258l-.21.158.08.255-.208-.158-.209.158.08-.255-.209-.158h.258l.08-.256zM10.435 2.22l.08.256h.258l-.21.158.08.255-.208-.158-.209.158.08-.255-.209-.158h.258l.08-.256zM1.025 4.8l.08.256h.258l-.21.158.08.255-.208-.158-.209.158.08-.255-.209-.158h.258l.08-.256zM2.205 4.8l.08.256h.258l-.21.158.08.255-.208-.158-.209.158.08-.255-.209-.158h.258l.08-.256zM3.395 4.8l.08.256h.258l-.21.158.08.255-.208-.158-.209.158.08-.255-.209-.158h.258l.08-.256zM4.575 4.8l.08.256h.258l-.21.158.08.255-.208-.158-.209.158.08-.255-.209-.158h.258l.08-.256zM5.755 4.8l.08.256h.258l-.21.158.08.255-.208-.158-.209.158.08-.255-.209-.158h.258l.08-.256zM6.945 4.8l.08.256h.258l-.21.158.08.255-.208-.158-.209.158.08-.255-.209-.158h.258l.08-.256zM8.125 4.8l.08.256h.258l-.209.158.08.255-.209-.158-.209.158.08-.255-.209-.158h.258l.08-.256zM9.315 4.8l.08.256h.258l-.21.158.08.255-.208-.158-.209.158.08-.255-.209-.158h.258l.08-.256zM10.435 4.8l.08.256h.258l-.21.158.08.255-.208-.158-.209.158.08-.255-.209-.158h.258l.08-.256z" fill="#fff"/><path d="M1 .25h18v-.5H1v.5zM19.75 1v12h.5V1h-.5zM19 13.75H1v.5h18v-.5zM.25 13V1h-.5v12h.5zm.75.75A.75.75 0 01.25 13h-.5c0 .69.56 1.25 1.25 1.25v-.5zM19.75 13a.75.75 0 01-.75.75v.5c.69 0 1.25-.56 1.25-1.25h-.5zM19 .25a.75.75 0 01.75.75h.5c0-.69-.56-1.25-1.25-1.25v.5zM1-.25C.31-.25-.25.31-.25 1h.5A.75.75 0 011 .25v-.5z" fill="#94949E"/></svg>